# xmcd CD database file
#
# Track frame offsets:
#	150
#	23963
#	41850
#	53387
#	69499
#	84606
#	98825
#	131433
#	150025
#	165929
#	178553
#	192518
#	216482
#	231385
#	243208
#	256638
#	264750
#	290959
#	309183
#
# Disc length: 4407 seconds
#
# Revision: 1
# Processed by: cddbd v1.5.2PL0 Copyright (c) Steve Scherf et al.
# Submitted via: CDex 1.51
#
DISCID=f7113513
DTITLE=Asher Quinn - Forgotten Language Of The Heart [CD1)
DYEAR=2009
DGENRE=New Age
TTITLE0=Bow Down
TTITLE1=The Mystic Garden (live)
TTITLE2=Allah, Hallelujah, Elohim
TTITLE3=Swing Lo, Sweet Chariot
TTITLE4=La Vie D'Une Oiseau
TTITLE5=If You Believed In Love (live)
TTITLE6=Heal Your Heart
TTITLE7=Lily Of The West
TTITLE8=Gypsy Madonna
TTITLE9=Bird On The Wire (live)
TTITLE10=I Heard The Voice Of Jesus Say
TTITLE11=A Solitary Bird
TTITLE12=The First Time I Ever Saw Your Face
TTITLE13=Field Of Stars
TTITLE14=Girl Jesus (live)
TTITLE15=Hang On To A Dream
TTITLE16=Soldier Of Love
TTITLE17=Gloria
TTITLE18=House Of Spirits
EXTD=YEAR: 2009
EXTT0=
EXTT1=
EXTT2=
EXTT3=
EXTT4=
EXTT5=
EXTT6=
EXTT7=
EXTT8=
EXTT9=
EXTT10=
EXTT11=
EXTT12=
EXTT13=
EXTT14=
EXTT15=
EXTT16=
EXTT17=
EXTT18=
PLAYORDER=
